<svg xmlns="http://www.w3.org/2000/svg" width="640" height="360" viewBox="0 0 640 360" role="img" aria-labelledby="title desc">
  <title id="title">Festival Sons da Cidade</title>
  <desc id="desc">Imagem ilustrativa de festival com skyline e ondas sonoras.</desc>
  <defs>
    <linearGradient id="bg" x1="0" y1="0" x2="0" y2="1">
      <stop offset="0%" stop-color="#0A3551"/>
      <stop offset="100%" stop-color="#22A0C7"/>
    </linearGradient>
  </defs>
  <rect width="640" height="360" fill="url(#bg)"/>
  <rect y="250" width="640" height="110" fill="#07273B"/>
  <rect x="70" y="150" width="50" height="100" fill="#103E5A"/>
  <rect x="130" y="110" width="54" height="140" fill="#0E4767"/>
  <rect x="194" y="168" width="44" height="82" fill="#12455F"/>
  <rect x="250" y="95" width="64" height="155" fill="#0C4E71"/>
  <rect x="326" y="132" width="50" height="118" fill="#0D425F"/>
  <rect x="386" y="86" width="66" height="164" fill="#0B4A6B"/>
  <rect x="462" y="142" width="50" height="108" fill="#0E3E5B"/>
  <rect x="522" y="118" width="52" height="132" fill="#114762"/>
  <path d="M30 210 C90 150, 140 270, 200 210 S310 150, 370 210 S480 270, 540 210 S590 150, 620 200" fill="none" stroke="#8DF2FF" stroke-width="6" stroke-linecap="round"/>
  <text x="48" y="64" fill="#DFFBFF" font-family="Segoe UI, sans-serif" font-size="28" font-weight="700">SONS DA CIDADE</text>
  <text x="48" y="92" fill="#BDEFFF" font-family="Segoe UI, sans-serif" font-size="17">Festival urbano ao ar livre</text>
</svg>
